<svg xmlns="http://www.w3.org/2000/svg" version="1.1" xmlns:xlink="http://www.w3.org/1999/xlink" xmlns:svgjs="http://svgjs.dev/svgjs" width="1000" height="625" viewBox="0 0 1000 625"><g transform="matrix(1,0,0,1,0,0)"><svg viewBox="0 0 512 320" data-background-color="#ffffff" preserveAspectRatio="xMidYMid meet" height="625" width="1000" xmlns="http://www.w3.org/2000/svg" xmlns:xlink="http://www.w3.org/1999/xlink"><g id="tight-bounds" transform="matrix(1,0,0,1,0,0)"><svg viewBox="0 0 512 320" height="320" width="512"><g><svg></svg></g><g><svg viewBox="0 0 512 320" height="320" width="512"><g><path xmlns="http://www.w3.org/2000/svg" d="M96 160c0-88.366 71.634-160 160-160 88.366 0 160 71.634 160 160 0 88.366-71.634 160-160 160-88.366 0-160-71.634-160-160zM256 306.78c81.064 0 146.78-65.716 146.78-146.78 0-81.064-65.716-146.78-146.78-146.78-81.064 0-146.78 65.716-146.78 146.78 0 81.064 65.716 146.78 146.78 146.78z" fill="#c96f37" fill-rule="nonzero" stroke="none" stroke-width="1" stroke-linecap="butt" stroke-linejoin="miter" stroke-miterlimit="10" stroke-dasharray="" stroke-dashoffset="0" font-family="none" font-weight="none" font-size="none" text-anchor="none" style="mix-blend-mode: normal" data-fill-palette-color="tertiary"></path></g><g transform="matrix(1,0,0,1,32,20)"><svg viewBox="0 0 448 280" height="280" width="448"><g><svg viewBox="0 0 448 280" height="280" width="448"><g><svg viewBox="0 0 448 280" height="280" width="448"><g><svg viewBox="0 0 448 280" height="280" width="448"><g><svg viewBox="0 0 448 280" height="280" width="448"><g transform="matrix(1,0,0,1,150.1535473157309,74.00336708925556)"><svg viewBox="0 0 147.69290536853822 131.99326582148888" height="131.99326582148888" width="147.69290536853822"><g><svg xmlns="http://www.w3.org/2000/svg" xmlns:xlink="http://www.w3.org/1999/xlink" version="1.1" x="0" y="0" viewBox="0.49999696016311646 7.299999237060547 127 113.5" style="enable-background:new 0 0 128 128;" xml:space="preserve" height="131.99326582148888" width="147.69290536853822" class="icon-o-0" data-fill-palette-color="accent" id="o-0"><g fill="#c96f37" data-fill-palette-color="accent"><path d="M6.7 56.1L14.8 68h-2.7c-1.4 0-2.5 1.1-2.5 2.5v1.8H7c-0.4 0-0.7 0.3-0.7 0.7 0 0.4 0.3 0.7 0.7 0.7h3.5H22h3.5c0.4 0 0.7-0.3 0.7-0.7 0-0.4-0.3-0.7-0.7-0.7h-2.7v-1.8c0-1.4-1.1-2.5-2.5-2.5h-3.7L8.3 55.9c1-0.5 1.6-1.4 1.6-2.6 0-1.1-0.7-2.1-1.6-2.6l8.1-11.9 2.2 1.6 4.5 11.4c0.1 0.3 0.3 0.4 0.6 0.5h0.1c0.2 0 0.5-0.1 0.6-0.3l2.7-3.8c0.6 0.3 1.2 0.4 1.9 0.4 1.8 0 3.7-1 5-2.8 0.9-1.3 1.4-2.8 1.3-4.2-0.1-1.2-0.5-2.3-1.3-3l2.7-3.8c0.2-0.2 0.2-0.5 0.1-0.7-0.1-0.2-0.4-0.4-0.6-0.4L24 33.1l-4.6-3.3c-1-0.7-2.2-1-3.4-0.8s-2.2 0.9-3 1.8c-0.7 1-1 2.2-0.8 3.4s0.9 2.2 1.8 2.9l1.2 0.8L6.7 50.5c-1.4 0.2-2.4 1.4-2.4 2.8C4.3 54.8 5.3 55.9 6.7 56.1zM21.3 70.5v1.8H11.2v-1.8c0-0.5 0.4-1 1-1h8.1C20.8 69.5 21.3 69.9 21.3 70.5zM33.8 41.7c0.1 1.1-0.3 2.3-1 3.3-1.3 1.8-3.3 2.6-4.8 2l5.1-7.2C33.6 40.3 33.8 41 33.8 41.7zM13.7 34c-0.1-0.8 0.1-1.6 0.5-2.3 0.5-0.7 1.2-1.1 2-1.3 0.2 0 0.3 0 0.5 0 0.6 0 1.2 0.2 1.8 0.6l4.8 3.4c0.1 0.1 0.3 0.1 0.4 0.1L34.8 35 24 50.1l-4-10.4c-0.1-0.1-0.1-0.2-0.3-0.3L15 36C14.3 35.5 13.9 34.8 13.7 34zM7.1 52L7.1 52 7.1 52c0.8 0 1.4 0.6 1.4 1.4 0 0.8-0.6 1.4-1.4 1.4s-1.4-0.6-1.4-1.4S6.4 52 7.1 52z" fill="#c96f37" data-fill-palette-color="accent"></path><path d="M111.9 66V48.2c0-0.4-0.3-0.7-0.7-0.7H80.7c-0.4 0-0.7 0.3-0.7 0.7V66c0 0.4 0.3 0.7 0.7 0.7h30.5C111.6 66.7 111.9 66.4 111.9 66zM110.4 65.3h-29V48.9h29V65.3z" fill="#c96f37" data-fill-palette-color="accent"></path><path d="M2.5 31.9c0.4 0 0.7-0.3 0.7-0.7V17.6c0-0.4-0.3-0.7-0.7-0.7s-0.7 0.3-0.7 0.7v13.6C1.7 31.6 2.1 31.9 2.5 31.9z" fill="#c96f37" data-fill-palette-color="accent"></path><path d="M2.5 40.8c0.4 0 0.7-0.3 0.7-0.7v-4.4c0-0.4-0.3-0.7-0.7-0.7s-0.7 0.3-0.7 0.7v4.4C1.7 40.5 2.1 40.8 2.5 40.8z" fill="#c96f37" data-fill-palette-color="accent"></path><path d="M125.6 90.2c-0.4 0-0.7 0.3-0.7 0.7v13.6c0 0.4 0.3 0.7 0.7 0.7 0.4 0 0.7-0.3 0.7-0.7V90.9C126.3 90.5 126 90.2 125.6 90.2z" fill="#c96f37" data-fill-palette-color="accent"></path><path d="M125.6 108.2c-0.4 0-0.7 0.3-0.7 0.7v4.4c0 0.4 0.3 0.7 0.7 0.7 0.4 0 0.7-0.3 0.7-0.7V109C126.3 108.6 126 108.2 125.6 108.2z" fill="#c96f37" data-fill-palette-color="accent"></path><path d="M25.3 112.5c-0.3-0.3-0.8-0.3-1 0-0.3 0.3-0.3 0.8 0 1l1.7 1.7c0.1 0.1 0.3 0.2 0.5 0.2s0.4-0.1 0.5-0.2c0.3-0.3 0.3-0.8 0-1L25.3 112.5z" fill="#c96f37" data-fill-palette-color="accent"></path><path d="M30.6 117.9c-0.3-0.3-0.8-0.3-1 0s-0.3 0.8 0 1l1.7 1.7c0.1 0.1 0.3 0.2 0.5 0.2 0.2 0 0.4-0.1 0.5-0.2 0.3-0.3 0.3-0.8 0-1L30.6 117.9z" fill="#c96f37" data-fill-palette-color="accent"></path><path d="M25.9 117.9l-1.7 1.7c-0.3 0.3-0.3 0.8 0 1 0.1 0.1 0.3 0.2 0.5 0.2s0.4-0.1 0.5-0.2l1.7-1.7c0.3-0.3 0.3-0.8 0-1S26.2 117.6 25.9 117.9z" fill="#c96f37" data-fill-palette-color="accent"></path><path d="M31.2 112.5l-1.7 1.7c-0.3 0.3-0.3 0.8 0 1 0.1 0.1 0.3 0.2 0.5 0.2s0.4-0.1 0.5-0.2l1.7-1.7c0.3-0.3 0.3-0.8 0-1C32 112.3 31.5 112.3 31.2 112.5z" fill="#c96f37" data-fill-palette-color="accent"></path><path d="M103.8 15.9c0.1 0.1 0.3 0.2 0.5 0.2s0.4-0.1 0.5-0.2c0.3-0.3 0.3-0.8 0-1l-1.7-1.7c-0.3-0.3-0.8-0.3-1 0-0.3 0.3-0.3 0.8 0 1L103.8 15.9z" fill="#c96f37" data-fill-palette-color="accent"></path><path d="M109.2 21.3c0.1 0.1 0.3 0.2 0.5 0.2s0.4-0.1 0.5-0.2c0.3-0.3 0.3-0.8 0-1l-1.7-1.7c-0.3-0.3-0.8-0.3-1 0-0.3 0.3-0.3 0.8 0 1L109.2 21.3z" fill="#c96f37" data-fill-palette-color="accent"></path><path d="M102.7 21.5c0.2 0 0.4-0.1 0.5-0.2l1.7-1.7c0.3-0.3 0.3-0.8 0-1s-0.8-0.3-1 0l-1.7 1.7c-0.3 0.3-0.3 0.8 0 1C102.3 21.4 102.5 21.5 102.7 21.5z" fill="#c96f37" data-fill-palette-color="accent"></path><path d="M108 16.1c0.2 0 0.4-0.1 0.5-0.2l1.7-1.7c0.3-0.3 0.3-0.8 0-1-0.3-0.3-0.8-0.3-1 0l-1.7 1.7c-0.3 0.3-0.3 0.8 0 1C107.6 16.1 107.8 16.1 108 16.1z" fill="#c96f37" data-fill-palette-color="accent"></path><path d="M123.6 31.8c-2.2 0-3.9 1.8-3.9 3.9 0 2.2 1.8 3.9 3.9 3.9 2.2 0 3.9-1.8 3.9-3.9C127.5 33.5 125.7 31.8 123.6 31.8zM123.6 38.1c-1.3 0-2.4-1.1-2.4-2.4 0-1.3 1.1-2.4 2.4-2.4s2.4 1.1 2.4 2.4C126 37.1 124.9 38.1 123.6 38.1z" fill="#c96f37" data-fill-palette-color="accent"></path><path d="M18.6 10.3h14.7c0.4 0 0.7-0.3 0.7-0.7s-0.3-0.7-0.7-0.7H18.6c-0.4 0-0.7 0.3-0.7 0.7C17.9 9.9 18.2 10.3 18.6 10.3z" fill="#c96f37" data-fill-palette-color="accent"></path><path d="M38.2 10.3H43c0.4 0 0.7-0.3 0.7-0.7S43.4 8.9 43 8.9h-4.8c-0.4 0-0.7 0.3-0.7 0.7C37.4 9.9 37.8 10.3 38.2 10.3z" fill="#c96f37" data-fill-palette-color="accent"></path><path d="M42.9 13.8H32.7c-0.4 0-0.7 0.3-0.7 0.7s0.3 0.7 0.7 0.7H43c0.4 0 0.7-0.3 0.7-0.7S43.3 13.8 42.9 13.8z" fill="#c96f37" data-fill-palette-color="accent"></path><path d="M24.9 13.8c-0.4 0-0.7 0.3-0.7 0.7s0.3 0.7 0.7 0.7h3.3c0.4 0 0.7-0.3 0.7-0.7s-0.3-0.7-0.7-0.7H24.9z" fill="#c96f37" data-fill-palette-color="accent"></path><path d="M84.3 113.1c0-0.4-0.3-0.7-0.7-0.7H68.8c-0.4 0-0.7 0.3-0.7 0.7 0 0.4 0.3 0.7 0.7 0.7h14.7C83.9 113.8 84.3 113.5 84.3 113.1z" fill="#c96f37" data-fill-palette-color="accent"></path><path d="M93.1 112.3h-4.8c-0.4 0-0.7 0.3-0.7 0.7 0 0.4 0.3 0.7 0.7 0.7h4.8c0.4 0 0.7-0.3 0.7-0.7C93.9 112.7 93.5 112.3 93.1 112.3z" fill="#c96f37" data-fill-palette-color="accent"></path><path d="M93.1 117.4H82.9c-0.4 0-0.7 0.3-0.7 0.7 0 0.4 0.3 0.7 0.7 0.7h10.3c0.4 0 0.7-0.3 0.7-0.7C93.9 117.7 93.5 117.4 93.1 117.4z" fill="#c96f37" data-fill-palette-color="accent"></path><path d="M78.4 117.4h-3.3c-0.4 0-0.7 0.3-0.7 0.7 0 0.4 0.3 0.7 0.7 0.7h3.3c0.4 0 0.7-0.3 0.7-0.7C79.2 117.7 78.9 117.4 78.4 117.4z" fill="#c96f37" data-fill-palette-color="accent"></path><path d="M117.9 75.1h-16.2l-1.8-4.2h13.6c1.4 0 2.6-1.1 2.6-2.6V45.8c0-1.4-1.1-2.6-2.6-2.6H78.4c-1.4 0-2.6 1.1-2.6 2.6v22.5c0 1.4 1.1 2.6 2.6 2.6H92l-1.8 4.2h-89c-0.4 0-0.7 0.3-0.7 0.7v5.5c0 0.4 0.3 0.7 0.7 0.7h7.4v32.7h-2c-0.4 0-0.7 0.3-0.7 0.7 0 0.4 0.3 0.7 0.7 0.7h2.7 3.3 2.9c0.4 0 0.7-0.3 0.7-0.7 0-0.4-0.3-0.7-0.7-0.7h-2.2L14.8 82h89.3l1.5 32.7h-2.2c-0.4 0-0.7 0.3-0.7 0.7 0 0.4 0.3 0.7 0.7 0.7h2.9 3.3 2.7c0.4 0 0.7-0.3 0.7-0.7 0-0.4-0.3-0.7-0.7-0.7h-2V82.1h7.4c0.4 0 0.7-0.3 0.7-0.7v-5.5C118.6 75.4 118.3 75.1 117.9 75.1zM77.3 68.3V45.8c0-0.6 0.5-1.1 1.1-1.1h35.1c0.6 0 1.1 0.5 1.1 1.1v22.5c0 0.6-0.5 1.1-1.1 1.1H98.8 93 78.4C77.8 69.4 77.3 68.9 77.3 68.3zM93.5 70.9h4.8l1.8 4.2h-8.3L93.5 70.9zM11.9 114.9H10V82.1h3.4L11.9 114.9zM109.1 114.9h-1.9l-1.5-32.7h3.4V114.9zM117.2 80.6h-7.4-4.9H14.2 9.3 2v-4.1h88.7 10.5 16V80.6z" fill="#c96f37" data-fill-palette-color="accent"></path><path d="M65.6 24.5v3.4c0 0.4 0.3 0.7 0.7 0.7l0 0c0.4 0 0.7-0.3 0.7-0.7v-3.3c1-0.3 1.7-1.2 1.7-2.3 0-0.7-0.3-1.2-0.7-1.7l3.4-6.4c0.2-0.4 0.1-0.8-0.3-1s-0.8-0.1-1 0.3l-3.4 6.4c-0.1 0-0.3 0-0.4 0-1.3 0-2.4 1.1-2.4 2.4C64 23.3 64.7 24.2 65.6 24.5zM66.4 21.3c0.5 0 0.9 0.4 0.9 0.9s-0.4 0.9-0.9 0.9-0.9-0.4-0.9-0.9C65.4 21.7 65.9 21.3 66.4 21.3z" fill="#c96f37" data-fill-palette-color="accent"></path><path d="M66.4 37.3c8.3 0 15-6.7 15-15s-6.7-15-15-15-15 6.7-15 15S58.1 37.3 66.4 37.3zM66.4 8.7c7.5 0 13.6 6.1 13.6 13.6s-6.1 13.6-13.6 13.6-13.6-6.1-13.6-13.6C52.8 14.8 58.9 8.7 66.4 8.7z" fill="#c96f37" data-fill-palette-color="accent"></path><path d="M66.4 12.7c0.4 0 0.7-0.3 0.7-0.7v-1.6c0-0.4-0.3-0.7-0.7-0.7-0.4 0-0.7 0.3-0.7 0.7V12C65.7 12.3 66 12.7 66.4 12.7z" fill="#c96f37" data-fill-palette-color="accent"></path><path d="M56.1 21.5h-1.6c-0.4 0-0.7 0.3-0.7 0.7 0 0.4 0.3 0.7 0.7 0.7h1.6c0.4 0 0.7-0.3 0.7-0.7S56.5 21.5 56.1 21.5z" fill="#c96f37" data-fill-palette-color="accent"></path><path d="M66.4 31.8c-0.4 0-0.7 0.3-0.7 0.7v1.6c0 0.4 0.3 0.7 0.7 0.7 0.4 0 0.7-0.3 0.7-0.7v-1.6C67.1 32.1 66.8 31.8 66.4 31.8z" fill="#c96f37" data-fill-palette-color="accent"></path><path d="M76.7 23h1.6c0.4 0 0.7-0.3 0.7-0.7 0-0.4-0.3-0.7-0.7-0.7h-1.6c-0.4 0-0.7 0.3-0.7 0.7C76 22.6 76.3 23 76.7 23z" fill="#c96f37" data-fill-palette-color="accent"></path><path d="M74.6 105.6v-2.7h8.2c0.4 0 0.7-0.3 0.7-0.7v-9c0-0.4-0.3-0.7-0.7-0.7h-8.2v-2.7c0-0.4-0.3-0.7-0.7-0.7H39.3c-2 0-3.7 1.7-3.7 3.7v10.1c0 2 1.6 3.7 3.7 3.7h34.5C74.2 106.3 74.6 106 74.6 105.6zM82 93.9v7.5h-7.5v-7.5H82zM73.1 104.9H39.3c-1.2 0-2.2-1-2.2-2.2V92.6c0-1.2 1-2.2 2.2-2.2h33.8v2.7 9V104.9z" fill="#c96f37" data-fill-palette-color="accent"></path><path d="M47.7 92.4c-0.4 0-0.7 0.3-0.7 0.7v9c0 0.4 0.3 0.7 0.7 0.7s0.7-0.3 0.7-0.7v-9C48.4 92.7 48.1 92.4 47.7 92.4z" fill="#c96f37" data-fill-palette-color="accent"></path><path d="M55.1 92.4c-0.4 0-0.7 0.3-0.7 0.7v9c0 0.4 0.3 0.7 0.7 0.7s0.7-0.3 0.7-0.7v-9C55.8 92.7 55.5 92.4 55.1 92.4z" fill="#c96f37" data-fill-palette-color="accent"></path><path d="M62.5 92.4c-0.4 0-0.7 0.3-0.7 0.7v9c0 0.4 0.3 0.7 0.7 0.7s0.7-0.3 0.7-0.7v-9C63.2 92.7 62.9 92.4 62.5 92.4z" fill="#c96f37" data-fill-palette-color="accent"></path><path d="M47.1 61.9h5.7V71c0 0.4 0.3 0.7 0.7 0.7s0.7-0.3 0.7-0.7v-9.1H60c0.2 0 0.5-0.1 0.6-0.3s0.2-0.4 0.1-0.7l-1.2-3.4c-0.1-0.3-0.4-0.5-0.7-0.5h-1c-0.4 0-0.7-0.3-0.7-0.7l-0.5-8.2c0-0.2 0.1-0.4 0.2-0.6 0.1-0.2 0.3-0.2 0.6-0.2H58c0.3 0 0.6-0.2 0.7-0.5l1-2.8c0.1-0.2 0-0.5-0.1-0.7C59.4 43.1 59.2 43 59 43H48.2c-0.2 0-0.5 0.1-0.6 0.3s-0.2 0.4-0.1 0.7l1 2.8c0.1 0.3 0.4 0.5 0.7 0.5h0.6c0.2 0 0.4 0.1 0.6 0.2s0.2 0.4 0.2 0.6L50 56.3c0 0.4-0.4 0.7-0.7 0.7h-1c-0.3 0-0.6 0.2-0.7 0.5l-1.2 3.4c-0.1 0.2 0 0.5 0.1 0.7C46.6 61.8 46.9 61.9 47.1 61.9zM48.8 58.5h0.5c1.2 0 2.1-0.9 2.2-2.1l0.5-8.2c0-0.6-0.2-1.2-0.6-1.7-0.4-0.4-1-0.7-1.6-0.7h-0.1l-0.5-1.3h8.7l-0.5 1.3h-0.1c-0.6 0-1.2 0.3-1.6 0.7-0.4 0.4-0.6 1.1-0.6 1.7l0.5 8.2c0.1 1.2 1 2.1 2.2 2.1h0.5l0.7 1.9h-5.3-0.1c-0.1 0-0.1 0-0.1 0h-5.3L48.8 58.5z" fill="#c96f37" data-fill-palette-color="accent"></path></g></svg></g></svg></g><path d="M90.827 92.14C91.896 89.123 93.497 87.003 95.628 85.779 97.758 84.561 100.222 84.449 103.02 85.441V85.441L100.808 91.679C99.628 91.26 98.583 91.241 97.676 91.62 96.762 91.997 96.103 92.756 95.698 93.899V93.899C95.229 95.221 95.299 96.337 95.909 97.246 96.516 98.162 97.561 98.883 99.044 99.409V99.409L100.931 100.078C102.394 100.596 103.653 100.692 104.708 100.365 105.767 100.047 106.524 99.246 106.979 97.963V97.963C107.428 96.699 107.439 95.626 107.014 94.746 106.598 93.861 105.8 93.21 104.619 92.791V92.791L106.755 86.765C109.534 87.75 111.36 89.354 112.234 91.579 113.111 93.811 112.997 96.487 111.891 99.606V99.606C110.66 103.079 108.84 105.392 106.429 106.546 104.026 107.702 101.088 107.665 97.615 106.434V106.434C94.143 105.203 91.834 103.38 90.689 100.966 89.55 98.554 89.596 95.612 90.827 92.14ZM127.407 69.247L123.638 75.551 120.559 74.769 116.675 81.265 118.821 83.607 115.183 89.691 100.692 71.851 104.833 64.925ZM107.846 71.63L113.273 77.54 115.673 73.525 107.908 71.524ZM130.448 43.229C131.443 44.098 132.11 45.151 132.449 46.388 132.778 47.625 132.685 48.922 132.168 50.279V50.279L142.141 52.604 137.013 58.473 128.569 56.168 126.876 58.106 132.806 63.288 128.236 68.518 111.976 54.311 120.672 44.358C121.694 43.189 122.788 42.386 123.956 41.951 125.128 41.519 126.28 41.427 127.412 41.674 128.539 41.926 129.551 42.445 130.448 43.229ZM126.02 48.732C125.594 48.36 125.115 48.194 124.582 48.235 124.048 48.266 123.602 48.487 123.244 48.897V48.897L120.253 52.32 123.261 54.948 126.251 51.525C126.61 51.115 126.766 50.641 126.72 50.103 126.679 49.561 126.445 49.104 126.02 48.732ZM160.958 38.593L155.122 43.051 152.552 41.183 146.537 45.777 147.662 48.748 142.028 53.051 135.181 31.11 141.594 26.213ZM141.907 33.556L144.757 41.057 148.475 38.218 142.004 33.482ZM184.729 27.154L178.554 30.174 175.135 23.182C174.713 22.32 174.31 21.418 173.925 20.477 173.544 19.526 173.239 18.724 173.01 18.07 172.788 17.414 172.644 16.995 172.578 16.815V16.815L172.459 16.873 175.306 31.763 170.434 34.145 160.406 22.801 160.296 22.855C160.398 23.018 160.642 23.384 161.027 23.954 161.408 24.517 161.86 25.24 162.383 26.122 162.902 26.997 163.372 27.866 163.794 28.729V28.729L167.213 35.721 161.488 38.521 152.002 19.123 160.801 14.82 169.212 24.578 169.322 24.525 166.756 11.908 175.243 7.757ZM187.213 26.754L181.84 5.84 199.934 1.191 201.222 6.207 189.856 9.128 190.598 12.016 200.322 9.518 201.555 14.316 191.83 16.814 192.651 20.01 204.226 17.036 205.515 22.051ZM207.87 22.072L206.17 0.547 213.094 0 214.359 16.017 225.396 15.145 225.831 20.654ZM249.782 1.636C252.505 2.112 254.646 3.054 256.204 4.46 257.768 5.875 258.381 7.665 258.043 9.832V9.832L257.978 10.204 251.579 9.084 251.6 8.964C251.708 8.346 251.57 7.79 251.187 7.294 250.803 6.805 250.147 6.48 249.222 6.318V6.318C248.316 6.159 247.599 6.172 247.069 6.356 246.532 6.538 246.23 6.824 246.162 7.213V7.213C246.064 7.77 246.324 8.241 246.941 8.625 247.552 9.008 248.563 9.472 249.974 10.017V10.017C251.624 10.665 252.968 11.277 254.008 11.853 255.041 12.428 255.894 13.22 256.568 14.23 257.242 15.239 257.459 16.487 257.219 17.973V17.973C256.779 20.488 255.604 22.208 253.693 23.132 251.777 24.047 249.397 24.256 246.553 23.759V23.759C243.233 23.177 240.748 22.169 239.098 20.732 237.448 19.296 236.871 17.166 237.365 14.342V14.342L243.824 15.473C243.636 16.546 243.789 17.312 244.282 17.772 244.777 18.225 245.611 18.554 246.785 18.76V18.76C247.657 18.912 248.39 18.947 248.986 18.865 249.589 18.777 249.94 18.444 250.041 17.868V17.868C250.132 17.351 249.884 16.91 249.298 16.545 248.714 16.173 247.735 15.719 246.364 15.181V15.181C244.698 14.509 243.333 13.873 242.27 13.272 241.207 12.671 240.334 11.834 239.651 10.761 238.968 9.687 238.765 8.355 239.044 6.766V6.766C239.451 4.438 240.654 2.879 242.652 2.088 244.649 1.304 247.025 1.153 249.782 1.636ZM281.621 17.513L274.989 15.068 269.433 30.144 262.926 27.746 268.482 12.67 261.831 10.219 263.741 5.034 283.532 12.328ZM300.397 36.929C298.904 39.472 296.966 40.94 294.58 41.332 292.185 41.727 289.508 41.056 286.548 39.319V39.319C283.588 37.582 281.693 35.57 280.864 33.283 280.031 31.003 280.361 28.591 281.853 26.048V26.048L288.382 14.921 294.372 18.437 287.89 29.484C287.276 30.529 287.066 31.527 287.259 32.477 287.451 33.426 288.079 34.213 289.142 34.837V34.837C290.211 35.464 291.213 35.626 292.149 35.323 293.088 35.029 293.859 34.368 294.462 33.34V33.34L300.944 22.293 306.926 25.803ZM319.492 36.719C325.116 41.758 325.527 46.958 320.723 52.319V52.319C315.92 57.679 310.707 57.84 305.083 52.8V52.8L298.115 46.556 312.524 30.475ZM314.241 38.967L306.743 47.335 308.447 48.862C310.613 50.802 312.736 50.611 314.817 48.288V48.288L316.071 46.888C318.153 44.566 318.11 42.434 315.945 40.494V40.494ZM319.713 68.03L315.225 62.742 331.689 48.771 336.176 54.059ZM346.013 68.902C347.945 72.086 348.622 75.041 348.044 77.764 347.475 80.49 345.634 82.798 342.519 84.687V84.687C339.404 86.577 336.507 87.144 333.826 86.388 331.144 85.642 328.837 83.676 326.905 80.492V80.492C324.973 77.307 324.294 74.362 324.867 71.657 325.437 68.946 327.288 66.641 330.42 64.741V64.741C333.553 62.841 336.452 62.265 339.12 63.012 341.784 63.754 344.081 65.717 346.013 68.902ZM341.585 71.587C340.816 70.318 339.845 69.585 338.674 69.387 337.506 69.195 336.268 69.497 334.958 70.291V70.291L333.246 71.33C331.936 72.124 331.096 73.083 330.727 74.207 330.361 75.337 330.563 76.537 331.333 77.806V77.806C332.106 79.081 333.08 79.82 334.255 80.024 335.429 80.227 336.672 79.932 337.982 79.137V79.137L339.693 78.099C341.003 77.304 341.839 76.339 342.202 75.203 342.564 74.068 342.359 72.862 341.585 71.587ZM357.621 93.232C358.581 95.825 358.845 98.148 358.415 100.203 357.98 102.266 356.742 103.697 354.7 104.496V104.496L354.345 104.627 352.091 98.535 352.206 98.493C352.793 98.275 353.205 97.876 353.44 97.295 353.669 96.717 353.62 95.987 353.294 95.106V95.106C352.975 94.244 352.602 93.63 352.177 93.265 351.749 92.893 351.35 92.776 350.979 92.913V92.913C350.449 93.109 350.173 93.57 350.152 94.297 350.128 95.018 350.237 96.125 350.477 97.618V97.618C350.748 99.37 350.896 100.84 350.922 102.028 350.946 103.21 350.691 104.346 350.158 105.437 349.625 106.527 348.656 107.343 347.252 107.884V107.884C344.857 108.771 342.779 108.621 341.019 107.435 339.263 106.241 337.884 104.29 336.882 101.582V101.582C335.712 98.421 335.332 95.767 335.742 93.618 336.152 91.47 337.702 89.898 340.39 88.903V88.903L342.666 95.053C341.644 95.431 341.059 95.949 340.91 96.606 340.768 97.262 340.904 98.148 341.317 99.266V99.266C341.625 100.096 341.964 100.747 342.335 101.22 342.714 101.697 343.179 101.833 343.728 101.63V101.63C344.22 101.448 344.476 101.012 344.496 100.322 344.523 99.629 344.424 98.555 344.197 97.1V97.1C343.939 95.322 343.801 93.823 343.785 92.602 343.769 91.381 344.052 90.205 344.636 89.074 345.219 87.943 346.268 87.098 347.781 86.538V86.538C349.997 85.718 351.95 85.972 353.64 87.3 355.323 88.63 356.65 90.607 357.621 93.232ZM116.623 182.849C117.692 185.866 117.784 188.52 116.899 190.814 116.012 193.1 114.169 194.74 111.371 195.732V195.732L109.16 189.493C110.341 189.075 111.164 188.432 111.63 187.566 112.103 186.698 112.136 185.693 111.731 184.55V184.55C111.263 183.228 110.505 182.406 109.459 182.083 108.41 181.754 107.145 181.852 105.662 182.378V182.378L103.775 183.047C102.312 183.566 101.273 184.284 100.66 185.202 100.037 186.117 99.954 187.215 100.409 188.499V188.499C100.857 189.763 101.523 190.604 102.408 191.02 103.288 191.445 104.319 191.448 105.499 191.029V191.029L107.636 197.056C104.857 198.041 102.428 197.945 100.349 196.767 98.261 195.586 96.664 193.435 95.558 190.316V190.316C94.328 186.844 94.285 183.9 95.43 181.486 96.569 179.074 98.875 177.252 102.347 176.022V176.022C105.819 174.791 108.76 174.752 111.171 175.906 113.574 177.063 115.392 179.377 116.623 182.849ZM113.183 223.39L109.414 217.087 111.56 214.745 107.676 208.249 104.597 209.031 100.959 202.947 123.533 198.625 127.674 205.55ZM120.342 205.031L112.567 207.014 114.967 211.029 120.405 205.136ZM140.52 232.104C139.525 232.973 138.392 233.493 137.121 233.663 135.851 233.823 134.578 233.556 133.303 232.862V232.862L129.661 242.433 124.533 236.564 127.95 228.506 126.256 226.568 120.326 231.749 115.756 226.519 132.016 212.312 140.713 222.265C141.734 223.434 142.383 224.626 142.658 225.841 142.928 227.061 142.865 228.215 142.468 229.303 142.067 230.386 141.418 231.32 140.52 232.104ZM135.661 226.977C136.087 226.605 136.315 226.152 136.346 225.619 136.387 225.086 136.228 224.614 135.869 224.204V224.204L132.879 220.781 129.871 223.409 132.862 226.832C133.22 227.242 133.669 227.46 134.208 227.487 134.751 227.519 135.235 227.349 135.661 226.977ZM150.899 258.71L145.063 254.253 146.188 251.282 140.173 246.688 137.603 248.555 131.969 244.253 151.334 231.873 157.747 236.77ZM150.744 239.005L144.258 243.729 147.976 246.568 150.842 239.08ZM177.449 271.866L171.274 268.846 174.693 261.854C175.115 260.992 175.579 260.12 176.086 259.238 176.602 258.354 177.048 257.62 177.423 257.038 177.805 256.459 178.047 256.089 178.149 255.927V255.927L178.03 255.868 168.025 267.258 163.153 264.875 165.95 249.995 165.84 249.941C165.775 250.121 165.635 250.538 165.422 251.192 165.211 251.839 164.918 252.64 164.543 253.593 164.171 254.541 163.774 255.446 163.352 256.308V256.308L159.932 263.3 154.207 260.5 163.693 241.103 172.492 245.406 169.954 258.036 170.064 258.09 178.447 248.318 186.935 252.469ZM183.089 273.43L188.462 252.517 206.556 257.166 205.267 262.181 193.901 259.261 193.158 262.15 202.883 264.648 201.65 269.446 191.926 266.948 191.105 270.143 202.679 273.117 201.391 278.133ZM206.565 278.582L208.265 257.056 215.189 257.603 213.924 273.62 224.962 274.491 224.527 280ZM245.064 255.539C247.787 255.062 250.12 255.22 252.063 256.014 254.014 256.813 255.199 258.289 255.617 260.442V260.442L255.682 260.814 249.283 261.934 249.262 261.813C249.154 261.196 248.836 260.72 248.307 260.384 247.779 260.054 247.053 259.971 246.127 260.133V260.133C245.221 260.291 244.551 260.547 244.115 260.9 243.672 261.254 243.485 261.625 243.553 262.014V262.014C243.65 262.571 244.054 262.925 244.765 263.077 245.47 263.231 246.578 263.323 248.091 263.356V263.356C249.862 263.405 251.335 263.524 252.509 263.713 253.676 263.903 254.747 264.358 255.724 265.079 256.7 265.8 257.328 266.9 257.608 268.378V268.378C258.048 270.894 257.526 272.91 256.043 274.428 254.552 275.94 252.384 276.945 249.54 277.443V277.443C246.22 278.024 243.54 277.92 241.501 277.129 239.462 276.338 238.195 274.531 237.701 271.707V271.707L244.16 270.577C244.348 271.65 244.752 272.319 245.372 272.584 245.991 272.842 246.887 272.868 248.061 272.663V272.663C248.933 272.51 249.635 272.294 250.166 272.014 250.704 271.726 250.922 271.294 250.821 270.717V270.717C250.73 270.201 250.348 269.87 249.673 269.726 248.996 269.575 247.922 269.479 246.449 269.44V269.44C244.654 269.374 243.155 269.239 241.951 269.035 240.747 268.831 239.641 268.34 238.634 267.562 237.627 266.784 236.984 265.601 236.706 264.011V264.011C236.299 261.684 236.9 259.809 238.511 258.386 240.123 256.97 242.307 256.021 245.064 255.538ZM276.24 252.019L269.608 254.463 275.164 269.539 268.657 271.937 263.101 256.862 256.45 259.313 254.539 254.128 274.33 246.834ZM299.986 246.503C301.478 249.046 301.814 251.455 300.993 253.729 300.169 256.012 298.278 258.022 295.318 259.759V259.759C292.358 261.496 289.677 262.169 287.276 261.778 284.879 261.392 282.934 259.928 281.442 257.385V257.385L274.913 246.259 280.904 242.744 287.386 253.791C287.999 254.836 288.768 255.506 289.691 255.801 290.614 256.096 291.607 255.932 292.67 255.308V255.308C293.739 254.681 294.369 253.885 294.561 252.92 294.762 251.957 294.561 250.962 293.958 249.934V249.934L287.475 238.887 293.457 235.377ZM301.733 227.594C307.357 222.555 312.57 222.715 317.373 228.075V228.075C322.177 233.436 321.766 238.636 316.142 243.675V243.675L309.174 249.919 294.765 233.838ZM303.393 233.059L310.891 241.427 312.595 239.9C314.76 237.96 314.803 235.828 312.721 233.506V233.506L311.467 232.106C309.386 229.783 307.263 229.592 305.097 231.533V231.533ZM332.349 226.826L327.861 232.113 311.398 218.142 315.885 212.854ZM322.613 201.038C324.545 197.853 326.852 195.887 329.534 195.141 332.214 194.386 335.112 194.953 338.227 196.842V196.842C341.342 198.731 343.183 201.039 343.752 203.765 344.33 206.489 343.653 209.443 341.721 212.628V212.628C339.789 215.812 337.492 217.776 334.828 218.517 332.16 219.265 329.261 218.688 326.128 216.788V216.788C322.996 214.889 321.145 212.583 320.575 209.872 320.002 207.167 320.681 204.222 322.613 201.038ZM327.041 203.723C326.271 204.992 326.069 206.192 326.435 207.322 326.804 208.446 327.644 209.405 328.954 210.2V210.2L330.666 211.238C331.976 212.033 333.214 212.334 334.382 212.142 335.553 211.945 336.523 211.211 337.293 209.942V209.942C338.067 208.667 338.272 207.462 337.91 206.326 337.547 205.19 336.711 204.225 335.401 203.431V203.431L333.69 202.392C332.38 201.598 331.137 201.302 329.963 201.506 328.788 201.709 327.814 202.448 327.041 203.723ZM331.954 181.402C332.914 178.809 334.225 176.873 335.89 175.594 337.563 174.311 339.434 174.031 341.505 174.753V174.753L341.859 174.884 339.604 180.977 339.49 180.934C338.902 180.717 338.33 180.752 337.773 181.04 337.223 181.33 336.785 181.915 336.459 182.797V182.797C336.14 183.659 336.023 184.367 336.108 184.921 336.191 185.482 336.418 185.831 336.788 185.968V185.968C337.318 186.164 337.828 185.993 338.317 185.456 338.804 184.924 339.443 184.014 340.232 182.723V182.723C341.167 181.217 342.012 180.005 342.766 179.086 343.517 178.174 344.45 177.477 345.565 176.996 346.679 176.516 347.946 176.527 349.364 177.03V177.03C351.759 177.916 353.238 179.382 353.803 181.428 354.358 183.478 354.135 185.857 353.133 188.565V188.565C351.963 191.726 350.523 193.988 348.813 195.352 347.103 196.716 344.904 196.9 342.215 195.905V195.905L344.491 189.756C345.513 190.134 346.294 190.122 346.835 189.719 347.37 189.314 347.844 188.553 348.258 187.436V187.436C348.565 186.605 348.732 185.89 348.758 185.29 348.78 184.681 348.516 184.275 347.967 184.072V184.072C347.475 183.89 346.997 184.054 346.532 184.564 346.061 185.072 345.438 185.953 344.662 187.205V187.205C343.701 188.722 342.829 189.95 342.047 190.887 341.264 191.825 340.283 192.533 339.104 193.011 337.925 193.49 336.579 193.449 335.065 192.889V192.889C332.849 192.069 331.532 190.605 331.114 188.497 330.703 186.392 330.983 184.027 331.954 181.402ZM86.906 142.066C86.906 137.431 90.664 133.673 95.3 133.673 99.936 133.673 103.693 137.431 103.693 142.066 103.693 146.702 99.936 150.46 95.3 150.46 90.664 150.46 86.906 146.702 86.906 142.066ZM344.307 142.066C344.307 137.431 348.064 133.673 352.7 133.673 357.336 133.673 361.094 137.431 361.094 142.066 361.094 146.702 357.336 150.46 352.7 150.46 348.064 150.46 344.307 146.702 344.307 142.066Z" fill="#c96f37" data-fill-palette-color="primary"></path></svg></g></svg></g></svg></g><g></g></svg></g></svg></g></svg></g><defs></defs></svg><rect width="512" height="320" fill="none" stroke="none" visibility="hidden"></rect></g></svg></g></svg>